<svg width="20" height="20" viewBox="0 0 20 20" fill="none" xmlns="http://www.w3.org/2000/svg">
<path d="M16.5254 3.4696C15.2341 2.1797 13.5894 1.30158 11.7991 0.946228C10.0089 0.590878 8.15344 0.774253 6.46738 1.47317C4.78133 2.17209 3.34033 3.35518 2.32652 4.8729C1.31271 6.39061 0.771606 8.17482 0.771606 10C0.771606 11.8252 1.31271 13.6094 2.32652 15.1271C3.34033 16.6448 4.78133 17.8279 6.46738 18.5268C8.15344 19.2257 10.0089 19.4091 11.7991 19.0538C13.5894 18.6984 15.2341 17.8203 16.5254 16.5304C18.2562 14.7978 19.2284 12.449 19.2284 10C19.2284 7.551 18.2562 5.20217 16.5254 3.4696ZM13.805 12.7216C13.9493 12.8659 14.0304 13.0617 14.0304 13.2658C14.0304 13.4699 13.9493 13.6657 13.805 13.81C13.6606 13.9543 13.4649 14.0354 13.2608 14.0354C13.0566 14.0354 12.8609 13.9543 12.7166 13.81L9.99616 11.0836L7.27576 13.8088C7.13143 13.9531 6.93568 14.0342 6.73156 14.0342C6.52745 14.0342 6.33169 13.9531 6.18736 13.8088C6.04303 13.6645 5.96195 13.4687 5.96195 13.2646C5.96195 13.0605 6.04303 12.8647 6.18736 12.7204L8.90776 10.0036L6.18736 7.2796C6.04303 7.13527 5.96195 6.93951 5.96195 6.7354C5.96195 6.53128 6.04303 6.33553 6.18736 6.1912C6.33169 6.04687 6.52745 5.96578 6.73156 5.96578C6.93568 5.96578 7.13143 6.04687 7.27576 6.1912L9.99616 8.9116L12.7166 6.1912C12.8609 6.04687 13.0566 5.96578 13.2608 5.96578C13.4649 5.96578 13.6606 6.04687 13.805 6.1912C13.9493 6.33553 14.0304 6.53128 14.0304 6.7354C14.0304 6.93951 13.9493 7.13527 13.805 7.2796L11.0846 10.0036L13.805 12.7216Z" fill="#9D9D9D"/>
</svg>
